<mxfile host="app.diagrams.net" modified="2020-11-23T02:40:24.112Z" agent="5.0 (Macintosh; Intel Mac OS X 11_0_0) AppleWebKit/537.36 (KHTML, like Gecko) Chrome/86.0.4240.198 Safari/537.36" etag="SmMUT9Zkc-z0Sgf1rhGd" version="13.10.0" type="github">
  <diagram name="Page-1" id="97916047-d0de-89f5-080d-49f4d83e522f">
    <mxGraphModel dx="1186" dy="561" grid="0" gridSize="10" guides="1" tooltips="1" connect="1" arrows="1" fold="1" page="1" pageScale="1.5" pageWidth="1169" pageHeight="827" background="#F1FAEE" math="0" shadow="1">
      <root>
        <mxCell id="0" />
        <mxCell id="1" parent="0" />
        <mxCell id="r2BiUSebEBFjabXjODAQ-83" style="edgeStyle=orthogonalEdgeStyle;orthogonalLoop=1;jettySize=auto;html=1;exitX=0.5;exitY=1;exitDx=0;exitDy=0;strokeColor=#457B9D;fillColor=#A8DADC;fontSize=24;fontColor=#1D3557;curved=1;sketch=1;labelBackgroundColor=#F1FAEE;" parent="1" source="2" target="3" edge="1">
          <mxGeometry relative="1" as="geometry" />
        </mxCell>
        <mxCell id="pqGV1XuVgJJgS4zt7tVV-37" style="edgeStyle=orthogonalEdgeStyle;curved=0;rounded=1;sketch=0;orthogonalLoop=1;jettySize=auto;html=1;exitX=0;exitY=0.5;exitDx=0;exitDy=0;entryX=1;entryY=0.5;entryDx=0;entryDy=0;strokeColor=#457B9D;fillColor=#A8DADC;fontColor=#1D3557;" parent="1" source="2" target="r2BiUSebEBFjabXjODAQ-55" edge="1">
          <mxGeometry relative="1" as="geometry" />
        </mxCell>
        <mxCell id="pqGV1XuVgJJgS4zt7tVV-38" style="edgeStyle=orthogonalEdgeStyle;curved=0;rounded=1;sketch=0;orthogonalLoop=1;jettySize=auto;html=1;exitX=1;exitY=0.5;exitDx=0;exitDy=0;strokeColor=#457B9D;fillColor=#A8DADC;fontColor=#1D3557;" parent="1" source="2" target="4" edge="1">
          <mxGeometry relative="1" as="geometry" />
        </mxCell>
        <mxCell id="2" value="facade" style="fillColor=#A8DADC;strokeColor=none;shadow=1;fontStyle=1;fontColor=#1D3557;fontSize=24;sketch=1;rounded=1;" parent="1" vertex="1">
          <mxGeometry x="669" y="177" width="200" height="60" as="geometry" />
        </mxCell>
        <mxCell id="r2BiUSebEBFjabXjODAQ-80" value="" style="edgeStyle=orthogonalEdgeStyle;orthogonalLoop=1;jettySize=auto;html=1;strokeColor=#457B9D;fillColor=#A8DADC;fontSize=24;fontColor=#1D3557;curved=1;sketch=1;labelBackgroundColor=#F1FAEE;" parent="1" source="3" target="r2BiUSebEBFjabXjODAQ-79" edge="1">
          <mxGeometry relative="1" as="geometry" />
        </mxCell>
        <mxCell id="pqGV1XuVgJJgS4zt7tVV-28" style="edgeStyle=orthogonalEdgeStyle;orthogonalLoop=1;jettySize=auto;html=1;exitX=0.5;exitY=1;exitDx=0;exitDy=0;strokeColor=#457B9D;fontColor=#1D3557;curved=1;sketch=1;labelBackgroundColor=#F1FAEE;" parent="1" source="3" target="r2BiUSebEBFjabXjODAQ-66" edge="1">
          <mxGeometry relative="1" as="geometry" />
        </mxCell>
        <mxCell id="pqGV1XuVgJJgS4zt7tVV-29" style="edgeStyle=orthogonalEdgeStyle;orthogonalLoop=1;jettySize=auto;html=1;exitX=0.5;exitY=1;exitDx=0;exitDy=0;entryX=0.5;entryY=0;entryDx=0;entryDy=0;strokeColor=#457B9D;fontColor=#1D3557;curved=1;sketch=1;labelBackgroundColor=#F1FAEE;" parent="1" source="3" target="r2BiUSebEBFjabXjODAQ-62" edge="1">
          <mxGeometry relative="1" as="geometry" />
        </mxCell>
        <mxCell id="pqGV1XuVgJJgS4zt7tVV-30" style="edgeStyle=orthogonalEdgeStyle;orthogonalLoop=1;jettySize=auto;html=1;exitX=0.25;exitY=1;exitDx=0;exitDy=0;strokeColor=#457B9D;fontColor=#1D3557;curved=1;sketch=1;labelBackgroundColor=#F1FAEE;" parent="1" source="3" target="pqGV1XuVgJJgS4zt7tVV-20" edge="1">
          <mxGeometry relative="1" as="geometry" />
        </mxCell>
        <mxCell id="pqGV1XuVgJJgS4zt7tVV-33" style="edgeStyle=orthogonalEdgeStyle;orthogonalLoop=1;jettySize=auto;html=1;exitX=0.75;exitY=1;exitDx=0;exitDy=0;strokeColor=#457B9D;fontColor=#1D3557;curved=1;sketch=1;labelBackgroundColor=#F1FAEE;" parent="1" source="3" target="r2BiUSebEBFjabXjODAQ-64" edge="1">
          <mxGeometry relative="1" as="geometry" />
        </mxCell>
        <mxCell id="pqGV1XuVgJJgS4zt7tVV-35" style="edgeStyle=orthogonalEdgeStyle;orthogonalLoop=1;jettySize=auto;html=1;exitX=0;exitY=0.5;exitDx=0;exitDy=0;entryX=1;entryY=0.5;entryDx=0;entryDy=0;strokeColor=#457B9D;fontColor=#1D3557;curved=1;sketch=1;labelBackgroundColor=#F1FAEE;" parent="1" source="3" target="r2BiUSebEBFjabXjODAQ-60" edge="1">
          <mxGeometry relative="1" as="geometry" />
        </mxCell>
        <mxCell id="3" value="service" style="fillColor=#A8DADC;strokeColor=none;shadow=1;fontStyle=1;fontColor=#1D3557;fontSize=24;sketch=1;rounded=1;" parent="1" vertex="1">
          <mxGeometry x="659" y="339" width="220" height="60" as="geometry" />
        </mxCell>
        <mxCell id="pqGV1XuVgJJgS4zt7tVV-34" style="edgeStyle=orthogonalEdgeStyle;orthogonalLoop=1;jettySize=auto;html=1;exitX=0.5;exitY=1;exitDx=0;exitDy=0;entryX=0.84;entryY=0.067;entryDx=0;entryDy=0;entryPerimeter=0;strokeColor=#457B9D;fontColor=#1D3557;curved=1;sketch=1;labelBackgroundColor=#F1FAEE;" parent="1" source="4" target="3" edge="1">
          <mxGeometry relative="1" as="geometry" />
        </mxCell>
        <mxCell id="4" value="consumer" style="fillColor=#A8DADC;strokeColor=none;shadow=1;fontStyle=1;fontColor=#1D3557;fontSize=24;sketch=1;rounded=1;" parent="1" vertex="1">
          <mxGeometry x="987" y="177" width="199" height="60" as="geometry" />
        </mxCell>
        <mxCell id="r2BiUSebEBFjabXjODAQ-81" style="edgeStyle=orthogonalEdgeStyle;orthogonalLoop=1;jettySize=auto;html=1;exitX=0.5;exitY=1;exitDx=0;exitDy=0;entryX=0.109;entryY=0.039;entryDx=0;entryDy=0;entryPerimeter=0;strokeColor=#457B9D;fillColor=#A8DADC;fontSize=24;fontColor=#1D3557;curved=1;sketch=1;labelBackgroundColor=#F1FAEE;" parent="1" source="r2BiUSebEBFjabXjODAQ-55" target="3" edge="1">
          <mxGeometry relative="1" as="geometry" />
        </mxCell>
        <mxCell id="r2BiUSebEBFjabXjODAQ-55" value="schedule" style="fillColor=#A8DADC;strokeColor=none;shadow=1;fontStyle=1;fontColor=#1D3557;fontSize=24;arcSize=24;sketch=1;rounded=1;" parent="1" vertex="1">
          <mxGeometry x="380" y="176" width="200" height="61" as="geometry" />
        </mxCell>
        <mxCell id="r2BiUSebEBFjabXjODAQ-60" value="producer" style="fillColor=#A8DADC;strokeColor=none;shadow=1;fontStyle=1;fontColor=#1D3557;fontSize=24;sketch=1;rounded=1;" parent="1" vertex="1">
          <mxGeometry x="146" y="342" width="220" height="60" as="geometry" />
        </mxCell>
        <mxCell id="pqGV1XuVgJJgS4zt7tVV-17" style="edgeStyle=orthogonalEdgeStyle;orthogonalLoop=1;jettySize=auto;html=1;exitX=0.5;exitY=1;exitDx=0;exitDy=0;entryX=0.5;entryY=0;entryDx=0;entryDy=0;strokeColor=#457B9D;fontColor=#1D3557;curved=1;sketch=1;labelBackgroundColor=#F1FAEE;" parent="1" source="r2BiUSebEBFjabXjODAQ-62" target="r2BiUSebEBFjabXjODAQ-68" edge="1">
          <mxGeometry relative="1" as="geometry" />
        </mxCell>
        <mxCell id="r2BiUSebEBFjabXjODAQ-62" value="elastic" style="fillColor=#A8DADC;strokeColor=none;shadow=1;fontStyle=1;fontColor=#1D3557;fontSize=24;sketch=1;rounded=1;" parent="1" vertex="1">
          <mxGeometry x="550" y="531" width="200" height="60" as="geometry" />
        </mxCell>
        <mxCell id="r2BiUSebEBFjabXjODAQ-64" value="stub" style="fillColor=#A8DADC;strokeColor=none;shadow=1;fontStyle=1;fontColor=#1D3557;fontSize=24;sketch=1;rounded=1;" parent="1" vertex="1">
          <mxGeometry x="1114" y="531" width="220" height="60" as="geometry" />
        </mxCell>
        <mxCell id="r2BiUSebEBFjabXjODAQ-69" value="" style="edgeStyle=orthogonalEdgeStyle;orthogonalLoop=1;jettySize=auto;html=1;strokeColor=#457B9D;fillColor=#A8DADC;fontSize=24;fontColor=#1D3557;curved=1;sketch=1;labelBackgroundColor=#F1FAEE;" parent="1" source="r2BiUSebEBFjabXjODAQ-66" target="r2BiUSebEBFjabXjODAQ-68" edge="1">
          <mxGeometry relative="1" as="geometry" />
        </mxCell>
        <mxCell id="r2BiUSebEBFjabXjODAQ-66" value="dao" style="fillColor=#A8DADC;strokeColor=none;shadow=1;fontStyle=1;fontColor=#1D3557;fontSize=24;sketch=1;rounded=1;" parent="1" vertex="1">
          <mxGeometry x="805" y="531" width="201" height="60" as="geometry" />
        </mxCell>
        <mxCell id="r2BiUSebEBFjabXjODAQ-68" value="entity" style="fillColor=#A8DADC;strokeColor=none;shadow=1;fontStyle=1;fontColor=#1D3557;fontSize=24;sketch=1;rounded=1;" parent="1" vertex="1">
          <mxGeometry x="659" y="688" width="220" height="60" as="geometry" />
        </mxCell>
        <mxCell id="r2BiUSebEBFjabXjODAQ-79" value="stub" style="fillColor=#A8DADC;strokeColor=#457B9D;shadow=1;fontStyle=1;fontSize=24;labelBackgroundColor=none;fontColor=#1D3557;sketch=1;rounded=1;" parent="1" vertex="1">
          <mxGeometry x="1204" y="342" width="220" height="60" as="geometry" />
        </mxCell>
        <mxCell id="pqGV1XuVgJJgS4zt7tVV-20" value="common" style="fillColor=#A8DADC;strokeColor=none;shadow=1;fontStyle=1;fontColor=#1D3557;fontSize=24;sketch=1;rounded=1;" parent="1" vertex="1">
          <mxGeometry x="290" y="531" width="200" height="60" as="geometry" />
        </mxCell>
      </root>
    </mxGraphModel>
  </diagram>
</mxfile>
